<svg xmlns="http://www.w3.org/2000/svg" x="0px" y="0px"
width="100" height="100"
viewBox="0 0 172 172"
style=" fill:#000000;"><g fill="none" fill-rule="nonzero" stroke="none" stroke-width="1" stroke-linecap="butt" stroke-linejoin="miter" stroke-miterlimit="10" stroke-dasharray="" stroke-dashoffset="0" font-family="none" font-weight="none" font-size="none" text-anchor="none" style="mix-blend-mode: normal"><path d="M0,172v-172h172v172z" fill="none"></path><g fill="#ffffff"><path d="M136.42086,40.78617c-11.0424,0 -20.24926,6.11672 -22.22898,14.1732h-70.0732c-5.375,0 -9.74891,4.37055 -9.74891,9.74555v51.02555c0,5.375 4.37391,9.74891 9.74891,9.74891h83.70555c5.375,0 9.74891,-4.37391 9.74891,-9.74891v-40.17477c11.9454,-0.46612 21.4832,-8.06629 21.4832,-17.36461c0,-9.59932 -10.15343,-17.40492 -22.63547,-17.40492zM136.42086,44.22617c10.58488,0 19.19547,6.26448 19.19547,13.96492c0,7.70044 -8.61059,13.96828 -19.19547,13.96828h-2.61359c-0.4558,0 -0.89445,0.18055 -1.21609,0.50391c-1.70968,1.70796 -5.00493,3.64734 -8.75453,4.40414c0.76884,-2.0382 1.23289,-4.48337 1.23289,-6.62133c0,-0.60544 -0.31876,-1.16181 -0.83648,-1.47141c-4.45824,-2.67804 -7.0111,-6.60751 -7.00766,-10.78023v-0.00336c0,-7.70216 8.61059,-13.96492 19.19547,-13.96492zM134.41867,49.79938c-0.44548,0 -0.78754,0.39444 -0.72563,0.83648l1.505,10.57867c0.0516,0.35948 0.35935,0.62484 0.72227,0.62484h1.00109c0.36292,0 0.67067,-0.26536 0.72227,-0.62484l1.505,-10.57867c0.06364,-0.44204 -0.27842,-0.83648 -0.72563,-0.83648zM44.11867,58.39938h69.68015c0.05848,4.07984 1.93299,7.90216 5.24399,10.94484l-32.60274,26.84141l-46.48031,-36.18383c1.11284,-0.98556 2.55759,-1.60242 4.15891,-1.60242zM38.82766,61.30188l47.09844,36.66422c0.1548,0.1204 0.34166,0.18141 0.52742,0.18141c0.19436,0 0.38934,-0.06748 0.54758,-0.1982l33.37539,-27.47633c0.39732,0.30616 0.78945,0.61479 1.21945,0.90031c-0.129,1.78364 -0.60716,3.75126 -1.29,5.2339c-0.44032,0.95632 -0.32373,2.07478 0.30235,2.9193c0.54008,0.72928 1.38678,1.14891 2.2743,1.14891c0.129,0 0.26069,-0.00795 0.38969,-0.02687c3.93364,-0.5418 8.05382,-2.37296 10.86086,-4.75688v39.83883c0,2.28072 -1.22891,4.26396 -3.04695,5.37164c-0.04816,-0.11696 -0.11524,-0.22634 -0.215,-0.31578l-29.58266,-26.43156c-0.3526,-0.31476 -0.89789,-0.28377 -1.21609,0.07055c-0.31648,0.35432 -0.28377,0.89453 0.07055,1.21273l29.28703,26.16953c-0.51428,0.13588 -1.04514,0.2318 -1.60242,0.2318h-83.7089c-0.99244,0 -1.91705,-0.25072 -2.75469,-0.6618l28.80664,-25.73953c0.35432,-0.3182 0.38703,-0.85841 0.07055,-1.21273c-0.31648,-0.35432 -0.8635,-0.38531 -1.2161,-0.07055l-29.12914,26.02508c-1.26936,-1.15412 -2.08281,-2.8021 -2.08281,-4.64938v-51.02555c0,-1.2556 0.37985,-2.41921 1.01453,-3.40305zM136.42086,62.11148c-0.38356,0 -0.71246,0.138 -0.98766,0.4132c-0.2752,0.2752 -0.40984,0.60262 -0.40984,0.97758c0,0.40248 0.13145,0.73949 0.39977,1.00781c0.26832,0.26832 0.60213,0.39977 0.99773,0.39977c0.39044,0 0.71934,-0.13145 0.98766,-0.39977c0.2752,-0.2752 0.4132,-0.60901 0.4132,-0.99773c0,-0.38356 -0.138,-0.71246 -0.4132,-0.98766c-0.2752,-0.2752 -0.60582,-0.4132 -0.98766,-0.4132z"></path></g></g></svg>